<svg xmlns="http://www.w3.org/2000/svg" viewBox="0 0 512 512" width="512" height="512">
<defs>

  <!-- Fond bitume : gradient radial du centre vers les bords -->
  <radialGradient id="bg" cx="45%" cy="42%" r="58%">
    <stop offset="0%"   stop-color="#1C1C22"/>
    <stop offset="100%" stop-color="#070709"/>
  </radialGradient>

  <!-- Bague extérieure métallique -->
  <linearGradient id="ring" x1="0%" y1="0%" x2="100%" y2="100%">
    <stop offset="0%"   stop-color="#484852"/>
    <stop offset="35%"  stop-color="#26262E"/>
    <stop offset="70%"  stop-color="#36363E"/>
    <stop offset="100%" stop-color="#161620"/>
  </linearGradient>

  <!-- Arc actif : dégradé orange octane → or -->
  <linearGradient id="arcFill" gradientUnits="userSpaceOnUse"
    x1="104.45" y1="343.50" x2="395.39" y2="150.20">
    <stop offset="0%"   stop-color="#FF3200"/>
    <stop offset="48%"  stop-color="#FF6B00"/>
    <stop offset="100%" stop-color="#FFD700"/>
  </linearGradient>

  <!-- Halo de l'arc (glow simulé sans filtre) -->
  <linearGradient id="glowGrad" gradientUnits="userSpaceOnUse"
    x1="104.45" y1="343.50" x2="395.39" y2="150.20">
    <stop offset="0%"   stop-color="#FF3200" stop-opacity="0.20"/>
    <stop offset="60%"  stop-color="#FF6B00" stop-opacity="0.25"/>
    <stop offset="100%" stop-color="#FFD700" stop-opacity="0.10"/>
  </linearGradient>

  <!-- Aiguille : gradient queue → pointe -->
  <linearGradient id="needleGrad" gradientUnits="userSpaceOnUse"
    x1="225.73" y1="278.97" x2="377.07" y2="164.10">
    <stop offset="0%"   stop-color="#CC3000"/>
    <stop offset="100%" stop-color="#FFE200"/>
  </linearGradient>

  <!-- Moyeu central -->
  <radialGradient id="hubGrad" cx="36%" cy="32%" r="68%">
    <stop offset="0%"   stop-color="#3E3E48"/>
    <stop offset="100%" stop-color="#0C0C12"/>
  </radialGradient>

  <!-- Indicateur vert (glow) -->
  <radialGradient id="epGlow" cx="50%" cy="50%" r="50%">
    <stop offset="0%"   stop-color="#00E676" stop-opacity="0.50"/>
    <stop offset="100%" stop-color="#00E676" stop-opacity="0"/>
  </radialGradient>

</defs>

<!-- ① Fond arrondi bitume -->
<rect x="0" y="0" width="512" height="512" rx="108" ry="108" fill="url(#bg)"/>
<!-- Voile légèrement clair pour éviter le noir total -->
<rect x="0" y="0" width="512" height="512" rx="108" ry="108" fill="white" opacity="0.013"/>

<!-- ② Bague externe métallique (3 anneaux) -->
<circle cx="256" cy="256" r="241" fill="none" stroke="url(#ring)" stroke-width="3.5"/>
<circle cx="256" cy="256" r="238" fill="none" stroke="white"     stroke-width="0.9" opacity="0.07"/>
<circle cx="256" cy="256" r="235" fill="none" stroke="#080810"   stroke-width="1.5" opacity="0.65"/>

<!-- ③ Piste de la jauge (arc sombre, 240°) -->
<path d="M104.45,343.50 A175,175,0,1,1,407.55,343.50"
  fill="none" stroke="#111119" stroke-width="27" stroke-linecap="butt"/>
<path d="M104.45,343.50 A175,175,0,1,1,407.55,343.50"
  fill="none" stroke="#18182200" stroke-width="22" stroke-linecap="butt"/>
<path d="M104.45,343.50 A175,175,0,1,1,407.55,343.50"
  fill="none" stroke="#1A1A26" stroke-width="22" stroke-linecap="butt"/>
<!-- Reflet interne de la piste -->
<path d="M111.37,339.50 A167,167,0,1,1,400.63,339.50"
  fill="none" stroke="white" stroke-width="0.5" stroke-linecap="butt" opacity="0.033"/>

<!-- ④ Halo de l'arc actif (3 couches de plus en plus larges) -->
<path d="M104.45,343.50 A175,175,0,0,1,395.39,150.20"
  fill="none" stroke="url(#glowGrad)" stroke-width="54" stroke-linecap="round"/>
<path d="M104.45,343.50 A175,175,0,0,1,395.39,150.20"
  fill="none" stroke="url(#glowGrad)" stroke-width="40" stroke-linecap="round"/>
<path d="M104.45,343.50 A175,175,0,0,1,395.39,150.20"
  fill="none" stroke="url(#glowGrad)" stroke-width="30"  stroke-linecap="round"/>

<!-- ⑤ Arc actif (orange → or) -->
<path d="M104.45,343.50 A175,175,0,0,1,395.39,150.20"
  fill="none" stroke="url(#arcFill)" stroke-width="22" stroke-linecap="round"/>
<!-- Reflet brillant sur l'arc (liseré blanc) -->
<path d="M110.51,340.00 A168,168,0,0,1,389.82,154.43"
  fill="none" stroke="white" stroke-width="1.8" stroke-linecap="round" opacity="0.17"/>

<!-- ⑥ Graduations -->
<line x1="88.86" y1="352.50" x2="76.73" y2="359.50" stroke="#FF6B00" stroke-width="3" stroke-linecap="round"/>
  <line x1="68.00" y1="256.00" x2="57.00" y2="256.00" stroke="#FF8833" stroke-width="1.5" stroke-linecap="round"/>
  <line x1="88.86" y1="159.50" x2="76.73" y2="152.50" stroke="#FF6B00" stroke-width="3" stroke-linecap="round"/>
  <line x1="162.00" y1="93.19" x2="156.50" y2="83.66" stroke="#FF8833" stroke-width="1.5" stroke-linecap="round"/>
  <line x1="256.00" y1="63.00" x2="256.00" y2="49.00" stroke="#FF6B00" stroke-width="3" stroke-linecap="round"/>
  <line x1="350.00" y1="93.19" x2="355.50" y2="83.66" stroke="#FF8833" stroke-width="1.5" stroke-linecap="round"/>
  <line x1="423.14" y1="159.50" x2="435.27" y2="152.50" stroke="#3A3A4C" stroke-width="3" stroke-linecap="round"/>
  <line x1="444.00" y1="256.00" x2="455.00" y2="256.00" stroke="#252534" stroke-width="1.5" stroke-linecap="round"/>
  <line x1="423.14" y1="352.50" x2="435.27" y2="359.50" stroke="#3A3A4C" stroke-width="3" stroke-linecap="round"/>

<!-- ⑦ Indicateur de point de données (vert / glow) -->
<circle cx="395.39" cy="150.20" r="30" fill="url(#epGlow)"/>
<circle cx="395.39" cy="150.20" r="20" fill="url(#epGlow)"/>
<circle cx="395.39" cy="150.20" r="12" fill="#00E676" opacity="0.85"/>
<circle cx="395.39" cy="150.20" r="7"  fill="#80FFB9"/>
<circle cx="395.39" cy="150.20" r="3"  fill="white"   opacity="0.95"/>

<!-- ⑧ Ombre de l'aiguille (décalée) -->
<polygon points="377.07,164.10 251.16,249.63 225.73,278.97 260.84,262.37" fill="url(#needleGrad)" opacity="0.22" transform="translate(2,4)"/>
<!-- Corps de l'aiguille -->
<polygon points="377.07,164.10 251.16,249.63 225.73,278.97 260.84,262.37" fill="url(#needleGrad)"/>
<!-- Liseré blanc fin -->
<polygon points="377.07,164.10 251.16,249.63 225.73,278.97 260.84,262.37" fill="none" stroke="rgba(255,255,255,0.22)" stroke-width="0.9"/>

<!-- ⑨ Moyeu central -->
<circle cx="256" cy="256" r="30" fill="url(#hubGrad)" stroke="#3C3C46" stroke-width="1.8"/>
<circle cx="256" cy="256" r="26" fill="none" stroke="white" stroke-width="0.7" opacity="0.10"/>
<circle cx="256" cy="256" r="17" fill="#0C0C14" stroke="#2A2A34" stroke-width="1"/>
<!-- Vis centrale (croix) -->
<line x1="243" y1="256" x2="269" y2="256" stroke="#3A3A4A" stroke-width="2.2" stroke-linecap="round"/>
<line x1="256" y1="243" x2="256" y2="269" stroke="#3A3A4A" stroke-width="2.2" stroke-linecap="round"/>
<!-- Reflet central -->
<circle cx="251" cy="251" r="3" fill="white" opacity="0.14"/>

<!-- ⑩ Reflet vitré (haut-gauche) -->
<ellipse cx="196" cy="170" rx="86" ry="50"
  fill="white" opacity="0.038" transform="rotate(-28,196,170)"/>
<ellipse cx="190" cy="162" rx="55" ry="30"
  fill="white" opacity="0.048" transform="rotate(-28,190,162)"/>

</svg>